<mxfile host="app.diagrams.net" modified="2023-03-19T23:47:18.811Z" agent="5.0 (Windows NT 10.0; Win64; x64) AppleWebKit/537.36 (KHTML, like Gecko) Chrome/111.0.0.0 Safari/537.36" etag="QBQCSdMPxUJ3Y3EepnRB" version="21.0.8" type="github">
  <diagram name="Página-1" id="rl-KbVtHWtMd1gjiTtyr">
    <mxGraphModel dx="1028" dy="532" grid="1" gridSize="10" guides="1" tooltips="1" connect="1" arrows="1" fold="1" page="1" pageScale="1" pageWidth="827" pageHeight="1169" math="0" shadow="0">
      <root>
        <mxCell id="0" />
        <mxCell id="1" parent="0" />
        <mxCell id="PdTloCzUyP4Z8quDm2oM-1" value="Pessoa" style="swimlane;fontStyle=1;align=center;verticalAlign=top;childLayout=stackLayout;horizontal=1;startSize=26;horizontalStack=0;resizeParent=1;resizeParentMax=0;resizeLast=0;collapsible=1;marginBottom=0;whiteSpace=wrap;html=1;" vertex="1" parent="1">
          <mxGeometry x="280" y="60" width="360" height="170" as="geometry" />
        </mxCell>
        <mxCell id="PdTloCzUyP4Z8quDm2oM-2" value="-nome : String&lt;br&gt;-endereço :String" style="text;strokeColor=none;fillColor=none;align=left;verticalAlign=top;spacingLeft=4;spacingRight=4;overflow=hidden;rotatable=0;points=[[0,0.5],[1,0.5]];portConstraint=eastwest;whiteSpace=wrap;html=1;" vertex="1" parent="PdTloCzUyP4Z8quDm2oM-1">
          <mxGeometry y="26" width="360" height="44" as="geometry" />
        </mxCell>
        <mxCell id="PdTloCzUyP4Z8quDm2oM-3" value="" style="line;strokeWidth=1;fillColor=none;align=left;verticalAlign=middle;spacingTop=-1;spacingLeft=3;spacingRight=3;rotatable=0;labelPosition=right;points=[];portConstraint=eastwest;strokeColor=inherit;" vertex="1" parent="PdTloCzUyP4Z8quDm2oM-1">
          <mxGeometry y="70" width="360" height="8" as="geometry" />
        </mxCell>
        <mxCell id="PdTloCzUyP4Z8quDm2oM-4" value="+ setNome(nome: String) :void&lt;br&gt;+ getNome() : String&lt;br&gt;+ setEndereco(endereco : String) : void&lt;br&gt;+ Pessoa(nome : endereco : String)&lt;br&gt;+ toString() : String" style="text;strokeColor=none;fillColor=none;align=left;verticalAlign=top;spacingLeft=4;spacingRight=4;overflow=hidden;rotatable=0;points=[[0,0.5],[1,0.5]];portConstraint=eastwest;whiteSpace=wrap;html=1;" vertex="1" parent="PdTloCzUyP4Z8quDm2oM-1">
          <mxGeometry y="78" width="360" height="92" as="geometry" />
        </mxCell>
        <mxCell id="PdTloCzUyP4Z8quDm2oM-6" value="Fisica" style="swimlane;fontStyle=1;align=center;verticalAlign=top;childLayout=stackLayout;horizontal=1;startSize=26;horizontalStack=0;resizeParent=1;resizeParentMax=0;resizeLast=0;collapsible=1;marginBottom=0;whiteSpace=wrap;html=1;" vertex="1" parent="1">
          <mxGeometry y="320" width="440" height="180" as="geometry" />
        </mxCell>
        <mxCell id="PdTloCzUyP4Z8quDm2oM-7" value="- cpf : String&lt;br&gt;- dtNascimento : String" style="text;strokeColor=none;fillColor=none;align=left;verticalAlign=top;spacingLeft=4;spacingRight=4;overflow=hidden;rotatable=0;points=[[0,0.5],[1,0.5]];portConstraint=eastwest;whiteSpace=wrap;html=1;" vertex="1" parent="PdTloCzUyP4Z8quDm2oM-6">
          <mxGeometry y="26" width="440" height="44" as="geometry" />
        </mxCell>
        <mxCell id="PdTloCzUyP4Z8quDm2oM-8" value="" style="line;strokeWidth=1;fillColor=none;align=left;verticalAlign=middle;spacingTop=-1;spacingLeft=3;spacingRight=3;rotatable=0;labelPosition=right;points=[];portConstraint=eastwest;strokeColor=inherit;" vertex="1" parent="PdTloCzUyP4Z8quDm2oM-6">
          <mxGeometry y="70" width="440" height="8" as="geometry" />
        </mxCell>
        <mxCell id="PdTloCzUyP4Z8quDm2oM-9" value="+ setCpf(cpf : String) : void&lt;br&gt;+ getCpf() : String&lt;br&gt;+ setDtNascimento(dtNascimento :&amp;nbsp; String) : Void&lt;br&gt;+ setDtNascimento() : String&amp;nbsp;&lt;br&gt;+ Fisica(nome : String, endereco : String, cpf : String, dtNascimento : String)&lt;br&gt;+toString() : String" style="text;strokeColor=none;fillColor=none;align=left;verticalAlign=top;spacingLeft=4;spacingRight=4;overflow=hidden;rotatable=0;points=[[0,0.5],[1,0.5]];portConstraint=eastwest;whiteSpace=wrap;html=1;" vertex="1" parent="PdTloCzUyP4Z8quDm2oM-6">
          <mxGeometry y="78" width="440" height="102" as="geometry" />
        </mxCell>
        <mxCell id="PdTloCzUyP4Z8quDm2oM-10" value="Juridica" style="swimlane;fontStyle=1;align=center;verticalAlign=top;childLayout=stackLayout;horizontal=1;startSize=26;horizontalStack=0;resizeParent=1;resizeParentMax=0;resizeLast=0;collapsible=1;marginBottom=0;whiteSpace=wrap;html=1;" vertex="1" parent="1">
          <mxGeometry x="480" y="320" width="400" height="180" as="geometry" />
        </mxCell>
        <mxCell id="PdTloCzUyP4Z8quDm2oM-11" value="&amp;nbsp;- cnpj : String&lt;br&gt;&amp;nbsp;- razãoSocial : String" style="text;strokeColor=none;fillColor=none;align=left;verticalAlign=top;spacingLeft=4;spacingRight=4;overflow=hidden;rotatable=0;points=[[0,0.5],[1,0.5]];portConstraint=eastwest;whiteSpace=wrap;html=1;" vertex="1" parent="PdTloCzUyP4Z8quDm2oM-10">
          <mxGeometry y="26" width="400" height="54" as="geometry" />
        </mxCell>
        <mxCell id="PdTloCzUyP4Z8quDm2oM-12" value="" style="line;strokeWidth=1;fillColor=none;align=left;verticalAlign=middle;spacingTop=-1;spacingLeft=3;spacingRight=3;rotatable=0;labelPosition=right;points=[];portConstraint=eastwest;strokeColor=inherit;" vertex="1" parent="PdTloCzUyP4Z8quDm2oM-10">
          <mxGeometry y="80" width="400" height="8" as="geometry" />
        </mxCell>
        <mxCell id="PdTloCzUyP4Z8quDm2oM-13" value="+ setCnpj(cnopj : String) : void&lt;br&gt;+ getCnpj() : String&lt;br&gt;+ setRazaoSocial(razaoSocial : String) : void&lt;br&gt;+ getRazaoSocial() : String&lt;br&gt;+Juridica(nome : String, cnpj : String, razaoSocial : String)&lt;br&gt;+ toString() : String" style="text;strokeColor=none;fillColor=none;align=left;verticalAlign=top;spacingLeft=4;spacingRight=4;overflow=hidden;rotatable=0;points=[[0,0.5],[1,0.5]];portConstraint=eastwest;whiteSpace=wrap;html=1;" vertex="1" parent="PdTloCzUyP4Z8quDm2oM-10">
          <mxGeometry y="88" width="400" height="92" as="geometry" />
        </mxCell>
        <mxCell id="PdTloCzUyP4Z8quDm2oM-19" value="" style="endArrow=open;endFill=1;endSize=12;html=1;rounded=0;" edge="1" parent="1" target="PdTloCzUyP4Z8quDm2oM-4">
          <mxGeometry width="160" relative="1" as="geometry">
            <mxPoint x="280" y="320" as="sourcePoint" />
            <mxPoint x="440" y="340" as="targetPoint" />
          </mxGeometry>
        </mxCell>
        <mxCell id="PdTloCzUyP4Z8quDm2oM-20" value="" style="endArrow=open;endFill=1;endSize=12;html=1;rounded=0;exitX=0.409;exitY=-0.001;exitDx=0;exitDy=0;exitPerimeter=0;entryX=0.703;entryY=1.042;entryDx=0;entryDy=0;entryPerimeter=0;" edge="1" parent="1" source="PdTloCzUyP4Z8quDm2oM-10" target="PdTloCzUyP4Z8quDm2oM-4">
          <mxGeometry width="160" relative="1" as="geometry">
            <mxPoint x="280" y="340" as="sourcePoint" />
            <mxPoint x="440" y="340" as="targetPoint" />
          </mxGeometry>
        </mxCell>
      </root>
    </mxGraphModel>
  </diagram>
</mxfile>
